<svg width="48" height="48" viewBox="0 0 48 48" fill="none" xmlns="http://www.w3.org/2000/svg">
<path d="M24 24C25.0992 24 26.0514 23.6057 26.8286 22.8286C27.6057 22.0514 28 21.0992 28 20C28 18.9008 27.6057 17.9486 26.8286 17.1714C26.0514 16.3943 25.0992 16 24 16C22.9008 16 21.9486 16.3943 21.1714 17.1714C20.3943 17.9486 20 18.9008 20 20C20 21.0992 20.3943 22.0514 21.1714 22.8286C21.9486 23.6057 22.9008 24 24 24ZM24 43.3425C18.816 38.8982 14.9516 34.7821 12.3891 30.9948C9.77259 27.1276 8.5 23.5997 8.5 20.4C8.5 15.5177 10.065 11.6756 13.164 8.81755C16.2917 5.93288 19.8969 4.5 24 4.5C28.1031 4.5 31.7083 5.93288 34.836 8.81755C37.935 11.6756 39.5 15.5177 39.5 20.4C39.5 23.5997 38.2274 27.1276 35.6109 30.9948C33.0484 34.7821 29.184 38.8982 24 43.3425Z" fill="#7974FF" stroke="black"/>
</svg>
